<svg width="30" height="30" viewBox="0 0 30 30" fill="none" xmlns="http://www.w3.org/2000/svg">
<path fill-rule="evenodd" clip-rule="evenodd" d="M2.5 15C2.5 13.6193 3.61929 12.5 5 12.5C6.38071 12.5 7.5 13.6193 7.5 15C7.5 16.3807 6.38071 17.5 5 17.5C3.61929 17.5 2.5 16.3807 2.5 15Z" fill="#00964A"/>
<path fill-rule="evenodd" clip-rule="evenodd" d="M12.5 15C12.5 13.6193 13.6193 12.5 15 12.5C16.3807 12.5 17.5 13.6193 17.5 15C17.5 16.3807 16.3807 17.5 15 17.5C13.6193 17.5 12.5 16.3807 12.5 15Z" fill="#00964A"/>
<path fill-rule="evenodd" clip-rule="evenodd" d="M22.5 15C22.5 13.6193 23.6193 12.5 25 12.5C26.3807 12.5 27.5 13.6193 27.5 15C27.5 16.3807 26.3807 17.5 25 17.5C23.6193 17.5 22.5 16.3807 22.5 15Z" fill="#00964A"/>
</svg>
