<svg width="24" height="24" viewBox="0 0 24 24" fill="none" xmlns="http://www.w3.org/2000/svg">
<path d="M22 20V12C22 11.4696 21.7893 10.9609 21.4142 10.5858C21.0391 10.2107 20.5304 10 20 10H15V9H13V15H15V14H18V20H17V22H23V20H22ZM21 20H19V13H15V11H20C20.2652 11 20.5196 11.1054 20.7071 11.2929C20.8946 11.4804 21 11.7348 21 12V20Z" fill="black" fill-opacity="0.8"/>
<path d="M9 9V10H6V4H7V2H1V4H2V12C2 12.5304 2.21071 13.0391 2.58579 13.4142C2.96086 13.7893 3.46957 14 4 14H9V15H11V9H9ZM9 13H4C3.73478 13 3.48043 12.8946 3.29289 12.7071C3.10536 12.5196 3 12.2652 3 12V4H5V11H9V13Z" fill="black" fill-opacity="0.8"/>
</svg>
